        <svg width="200" height="auto" viewBox="0 0 582 175" fill="none" xmlns="http://www.w3.org/2000/svg">
            <path d="M41.055 122.393C38.1417 122.393 35.2667 121.473 32.43 119.633C29.67 117.717 27.1017 115.493 24.725 112.963C22.425 110.433 20.4317 108.133 18.745 106.063C17.6717 107.597 16.56 109.207 15.41 110.893C14.3367 112.58 13.3783 114.305 12.535 116.068C12.2283 116.682 11.96 117.295 11.73 117.908C11.5 118.445 11.04 118.905 10.35 119.288C9.81333 119.595 9.2 119.825 8.51 119.978C7.82 120.055 7.16833 120.247 6.555 120.553C6.01833 120.783 5.48167 121.013 4.945 121.243C4.40833 121.473 3.83333 121.588 3.22 121.588C2.91333 121.588 2.76 121.55 2.76 121.473L2.875 121.243C3.18167 120.63 3.565 120.132 4.025 119.748C4.56167 119.288 5.02167 118.79 5.405 118.253C6.86167 116.337 8.12667 114.305 9.2 112.158C10.2733 110.012 11.3083 107.865 12.305 105.718L14.72 100.198C14.49 99.8151 14.0683 99.0868 13.455 98.0134C12.9183 96.8634 12.3817 95.7518 11.845 94.6784C11.385 93.5284 11.155 92.7618 11.155 92.3784C11.155 91.9184 11.385 91.2668 11.845 90.4234C12.305 89.5034 12.8033 88.6218 13.34 87.7784C13.9533 86.8584 14.375 86.1684 14.605 85.7084C14.835 85.3251 15.1033 85.1334 15.41 85.1334C15.9467 85.1334 16.215 85.3634 16.215 85.8234C16.215 86.1301 16.1767 86.5134 16.1 86.9734C16.0233 87.3568 15.985 87.7401 15.985 88.1234C15.985 89.0434 16.1767 89.9251 16.56 90.7684C16.9433 91.6118 17.3267 92.4551 17.71 93.2984C19.8567 88.6984 22.2333 83.7151 24.84 78.3484C27.5233 72.9818 30.5133 67.7301 33.81 62.5934C37.1067 57.3801 40.7867 52.6651 44.85 48.4484C48.9133 44.1551 53.3983 40.7434 58.305 38.2134C63.2883 35.6068 68.7317 34.3034 74.635 34.3034C77.2417 34.3034 79.5417 34.8401 81.535 35.9134C83.605 36.9101 84.64 38.9418 84.64 42.0084C84.64 42.4684 84.4867 43.4268 84.18 44.8834C83.8733 46.3401 83.4517 47.7201 82.915 49.0234C82.3783 50.2501 81.8033 50.8634 81.19 50.8634C80.96 50.8634 80.845 50.5568 80.845 49.9434C80.845 47.7968 80.5767 45.7268 80.04 43.7334C79.58 41.7401 78.6983 40.0918 77.395 38.7884C76.0917 37.4851 74.1367 36.8334 71.53 36.8334C68.2333 36.8334 65.1283 37.6384 62.215 39.2484C59.3017 40.7818 56.58 42.7751 54.05 45.2284C51.5967 47.6818 49.3733 50.3268 47.38 53.1634C45.3867 55.9234 43.6617 58.5684 42.205 61.0984C38.6017 67.3084 34.96 73.5568 31.28 79.8434C27.6 86.0534 24.0733 92.3401 20.7 98.7034L21.505 100.083C25.7217 96.0201 30.0533 92.1101 34.5 88.3534C38.9467 84.5968 43.6233 81.1084 48.53 77.8884C49.1433 77.4284 50.025 76.8918 51.175 76.2784C52.325 75.5884 53.2833 75.2434 54.05 75.2434C54.8167 75.2434 55.315 75.5884 55.545 76.2784C55.8517 76.9684 56.0433 77.7351 56.12 78.5784C56.1967 79.4218 56.235 80.1118 56.235 80.6484C56.235 84.5584 55.085 87.8551 52.785 90.5384C50.5617 93.2218 47.725 95.4068 44.275 97.0934C40.825 98.7801 37.1833 100.045 33.35 100.888C29.5933 101.732 26.1817 102.307 23.115 102.613C24.035 103.84 25.185 105.373 26.565 107.213C27.945 109.053 29.4783 110.855 31.165 112.618C32.9283 114.305 34.6917 115.762 36.455 116.988C38.295 118.138 40.0583 118.713 41.745 118.713C44.275 118.713 46.46 117.908 48.3 116.298C50.2167 114.612 51.9033 112.887 53.36 111.123C53.36 110.97 53.4367 110.893 53.59 110.893C53.6667 110.893 53.705 110.932 53.705 111.008C53.705 111.085 53.705 111.123 53.705 111.123C53.705 111.737 53.475 112.618 53.015 113.768C52.555 114.918 52.1333 115.723 51.75 116.183C51.2133 116.797 50.255 117.602 48.875 118.598C47.495 119.595 46.0767 120.477 44.62 121.243C43.1633 122.01 41.975 122.393 41.055 122.393ZM27.255 100.198C29.2483 100.198 31.2033 99.9301 33.12 99.3934C35.1133 98.8568 36.9917 98.2434 38.755 97.5534C40.595 96.7868 42.2817 95.5601 43.815 93.8734C45.3483 92.1101 46.575 90.1934 47.495 88.1234C48.415 85.9768 48.875 83.9068 48.875 81.9134C48.875 81.6834 48.76 81.5684 48.53 81.5684C47.9933 81.5684 46.92 82.1051 45.31 83.1784C43.7767 84.2518 41.975 85.5934 39.905 87.2034C37.9117 88.8134 35.88 90.5001 33.81 92.2634C31.74 93.9501 29.8617 95.5218 28.175 96.9784C26.565 98.3584 25.4533 99.3551 24.84 99.9684C25.2233 100.045 25.6067 100.122 25.99 100.198C26.45 100.198 26.8717 100.198 27.255 100.198ZM47.3737 121.128C47.3737 121.128 47.3354 121.128 47.2587 121.128C47.182 121.128 47.1437 121.09 47.1437 121.013C48.677 119.02 50.057 116.95 51.2837 114.803C52.587 112.657 53.852 110.548 55.0787 108.478C56.842 105.565 58.567 102.652 60.2537 99.7384C61.9404 96.7484 63.4737 93.7201 64.8537 90.6534C65.3904 89.6568 65.6587 88.5068 65.6587 87.2034C65.6587 86.7434 65.582 86.2834 65.4287 85.8234C65.352 85.3634 65.3137 84.9418 65.3137 84.5584C65.3137 84.0984 65.5054 83.6768 65.8887 83.2934C66.3487 82.9101 66.732 82.6034 67.0387 82.3734C67.192 82.2968 67.6904 82.0668 68.5337 81.6834C69.377 81.3001 70.3354 80.8784 71.4087 80.4184C72.482 79.8818 73.4404 79.4601 74.2837 79.1534C75.127 78.7701 75.587 78.5784 75.6637 78.5784C75.817 78.5784 75.932 78.7701 76.0087 79.1534C76.162 79.4601 76.2387 79.6518 76.2387 79.7284C76.2387 80.4951 75.932 81.5684 75.3187 82.9484C74.7054 84.3284 73.9387 85.7851 73.0187 87.3184C72.0987 88.8518 71.217 90.3084 70.3737 91.6884C69.5304 92.9918 68.8787 94.0268 68.4187 94.7934C69.492 93.4134 70.872 91.8418 72.5587 90.0784C74.2454 88.2384 76.0087 86.5134 77.8487 84.9034C79.7654 83.2934 81.4904 82.1818 83.0237 81.5684C84.6337 80.8784 86.2437 80.3034 87.8537 79.8434C88.5437 79.6134 89.502 79.3834 90.7287 79.1534C91.9554 78.9234 93.1054 78.6168 94.1787 78.2334C95.3287 77.8501 96.1337 77.4284 96.5937 76.9684L96.7087 77.7734C96.7854 80.6101 96.1337 82.6801 94.7537 83.9834C93.3737 85.2868 91.6104 86.1684 89.4637 86.6284C87.3937 87.0118 85.247 87.3951 83.0237 87.7784C79.1137 88.3151 75.7404 89.7334 72.9037 92.0334C70.1437 94.3334 67.767 97.0934 65.7737 100.313C63.7804 103.457 62.0554 106.715 60.5987 110.088C60.062 111.238 59.5637 112.427 59.1037 113.653C58.7204 114.803 58.2604 115.953 57.7237 117.103C57.4937 117.64 56.6504 118.253 55.1937 118.943C53.737 119.557 52.2037 120.055 50.5937 120.438C49.0604 120.898 47.987 121.128 47.3737 121.128ZM83.9347 121.013C83.3214 121.013 82.7081 120.898 82.0947 120.668C82.4781 119.365 83.0147 118.023 83.7047 116.643C84.4714 115.263 85.1614 113.96 85.7747 112.733C87.9981 108.44 90.5664 104.185 93.4797 99.9684C96.3931 95.7518 99.6131 91.8034 103.14 88.1234C106.666 84.3668 110.423 81.1468 114.41 78.4634C115.1 78.0034 116.135 77.6968 117.515 77.5434C118.895 77.3134 120.313 77.1984 121.77 77.1984C123.303 77.1218 124.453 77.0834 125.22 77.0834C125.68 77.0834 126.868 77.1218 128.785 77.1984C130.701 77.2751 132.81 77.3901 135.11 77.5434C137.41 77.6968 139.403 77.8884 141.09 78.1184C142.853 78.2718 143.773 78.5018 143.85 78.8084C142.93 79.0384 141.971 79.4218 140.975 79.9584C139.978 80.4951 139.173 81.1468 138.56 81.9134C135.34 85.4401 132.541 89.3118 130.165 93.5284C127.788 97.6684 125.603 101.885 123.61 106.178C123.38 106.715 123.111 107.29 122.805 107.903C122.575 108.517 122.46 109.13 122.46 109.743C122.46 110.203 122.575 110.433 122.805 110.433C122.958 110.433 123.15 110.357 123.38 110.203C123.61 110.05 123.763 109.935 123.84 109.858C126.523 107.558 129.628 105.22 133.155 102.843C136.758 100.39 140.208 98.5501 143.505 97.3234C143.581 97.2468 143.926 97.0934 144.54 96.8634C145.153 96.6334 145.498 96.5184 145.575 96.5184C145.805 96.5184 145.958 96.6334 146.035 96.8634C146.111 97.0168 146.188 97.1701 146.265 97.3234C144.501 98.0901 142.47 99.2018 140.17 100.658C137.87 102.038 135.531 103.61 133.155 105.373C130.855 107.06 128.708 108.823 126.715 110.663C124.798 112.427 123.265 114.075 122.115 115.608C121.808 116.068 121.54 116.528 121.31 116.988C121.08 117.448 120.811 117.947 120.505 118.483C120.045 119.403 119.355 119.978 118.435 120.208C117.515 120.438 116.556 120.553 115.56 120.553C115.253 120.553 114.563 120.477 113.49 120.323C112.416 120.247 111.381 120.093 110.385 119.863C109.465 119.557 109.005 119.212 109.005 118.828C109.005 118.292 109.465 117.18 110.385 115.493C111.381 113.73 112.646 111.698 114.18 109.398C115.713 107.098 117.246 104.798 118.78 102.498C120.39 100.122 121.846 98.0518 123.15 96.2884C124.453 94.4484 125.373 93.1834 125.91 92.4934C123.456 94.7934 120.85 96.9784 118.09 99.0484C115.406 101.118 112.723 103.188 110.04 105.258C107.126 107.558 104.136 109.858 101.07 112.158C98.0031 114.382 94.8597 116.49 91.6397 118.483C90.4897 119.173 89.2631 119.787 87.9597 120.323C86.6564 120.783 85.3147 121.013 83.9347 121.013ZM94.8597 112.388C95.3197 112.388 95.8564 112.197 96.4697 111.813C97.1597 111.43 97.6964 111.123 98.0797 110.893C101.07 109.053 104.175 106.945 107.395 104.568C110.691 102.115 113.911 99.5851 117.055 96.9784C120.198 94.3718 122.996 91.8801 125.45 89.5034C126.063 88.8901 126.791 88.0851 127.635 87.0884C128.478 86.0918 128.9 85.0951 128.9 84.0984C128.9 83.0251 128.286 82.2584 127.06 81.7984C125.833 81.3384 124.453 81.0701 122.92 80.9934C121.463 80.9168 120.351 80.8784 119.585 80.8784C119.125 80.8784 118.55 80.9168 117.86 80.9934C117.17 80.9934 116.633 81.1468 116.25 81.4534C114.486 82.7568 112.608 84.4818 110.615 86.6284C108.621 88.7751 106.628 91.1518 104.635 93.7584C102.718 96.2884 100.955 98.8184 99.3447 101.348C97.8114 103.878 96.5464 106.14 95.5497 108.133C95.3197 108.517 95.0131 109.092 94.6297 109.858C94.3231 110.548 94.1697 111.162 94.1697 111.698C94.1697 112.158 94.3997 112.388 94.8597 112.388ZM96.5461 152.983C93.9394 152.983 91.6394 152.408 89.6461 151.258C87.6528 150.185 86.6561 148.192 86.6561 145.278C86.6561 144.742 86.8094 143.745 87.1161 142.288C87.4228 140.908 87.8444 139.567 88.3811 138.263C88.8411 137.037 89.3778 136.423 89.9911 136.423C90.2211 136.423 90.3744 136.577 90.4511 136.883C90.4511 137.19 90.4511 137.42 90.4511 137.573C90.4511 139.72 90.7961 141.79 91.4861 143.783C92.0994 145.777 93.1728 147.387 94.7061 148.613C96.1628 149.917 98.1178 150.568 100.571 150.568C101.031 150.568 101.491 150.53 101.951 150.453C102.334 150.453 102.718 150.415 103.101 150.338C104.864 150.032 106.819 149.188 108.966 147.808C111.036 146.428 113.106 144.742 115.176 142.748C117.169 140.832 119.048 138.877 120.811 136.883C122.574 134.967 123.993 133.318 125.066 131.938C129.896 125.575 134.266 118.752 138.176 111.468C142.086 104.185 145.651 96.9018 148.871 89.6184L150.711 85.2484C150.711 84.7118 150.366 84.2518 149.676 83.8684C149.063 83.4851 148.373 83.1784 147.606 82.9484C146.839 82.7184 146.264 82.5651 145.881 82.4884C145.651 82.3351 145.536 82.1051 145.536 81.7984C145.536 80.8784 146.111 80.2651 147.261 79.9584C148.488 79.6518 149.753 79.4984 151.056 79.4984C152.436 79.4218 153.394 79.3834 153.931 79.3834C155.158 76.9301 156.423 74.4768 157.726 72.0234C159.106 69.4934 160.524 67.0401 161.981 64.6634C164.128 61.2134 166.121 58.0701 167.961 55.2334C169.878 52.3201 171.948 49.8284 174.171 47.7584C176.394 45.6118 179.039 43.9634 182.106 42.8134C185.173 41.6634 188.929 41.0884 193.376 41.0884C196.059 41.0884 198.474 41.5868 200.621 42.5834C202.768 43.5801 203.841 45.6501 203.841 48.7934C203.841 49.3301 203.688 50.3268 203.381 51.7834C203.074 53.1634 202.653 54.5051 202.116 55.8084C201.579 57.0351 201.004 57.6484 200.391 57.6484C200.161 57.6484 200.046 57.3034 200.046 56.6134C200.046 55.6168 200.008 54.3518 199.931 52.8184C199.854 51.2084 199.586 49.6368 199.126 48.1034C198.743 46.5701 198.091 45.3051 197.171 44.3084C196.328 43.2351 195.101 42.6984 193.491 42.6984C191.651 42.6984 189.619 43.3884 187.396 44.7684C185.249 46.0718 183.141 47.7201 181.071 49.7134C179.001 51.7068 177.084 53.7384 175.321 55.8084C173.634 57.8784 172.293 59.6418 171.296 61.0984C169.226 64.1651 167.156 67.2318 165.086 70.2984C163.016 73.3651 161.023 76.5084 159.106 79.7284H172.101C172.331 79.7284 172.446 79.8051 172.446 79.9584C172.446 80.3418 172.139 80.8401 171.526 81.4534C170.989 82.0668 170.529 82.3734 170.146 82.3734C168.919 82.3734 167.693 82.4501 166.466 82.6034C165.316 82.6801 164.166 82.7568 163.016 82.8334C162.096 82.9101 160.869 83.1018 159.336 83.4084C157.879 83.7151 156.921 84.2901 156.461 85.1334C155.311 87.1268 154.123 89.5418 152.896 92.3784C151.669 95.1384 150.519 97.6301 149.446 99.8534C147.069 105.067 144.616 110.242 142.086 115.378C139.633 120.515 136.834 125.498 133.691 130.328C128.401 138.072 121.654 144.243 113.451 148.843C111.074 150.147 108.353 151.143 105.286 151.833C102.143 152.6 99.2294 152.983 96.5461 152.983ZM164.915 120.553C164.685 120.553 164.072 120.477 163.075 120.323C162.079 120.247 161.12 120.093 160.2 119.863C159.28 119.557 158.82 119.212 158.82 118.828C158.82 117.678 159.319 116.107 160.315 114.113C161.389 112.043 162.692 109.782 164.225 107.328C165.835 104.798 167.56 102.268 169.4 99.7384C171.24 97.1318 172.927 94.7168 174.46 92.4934C176.07 90.2701 177.374 88.4301 178.37 86.9734C179.444 85.4401 179.98 84.5201 179.98 84.2134C179.98 83.9068 179.597 83.6384 178.83 83.4084C178.14 83.1784 177.374 82.9868 176.53 82.8334C175.764 82.6034 175.227 82.4884 174.92 82.4884C174.69 82.3351 174.575 82.1051 174.575 81.7984C174.575 80.8784 175.15 80.2651 176.3 79.9584C177.527 79.6518 178.792 79.4601 180.095 79.3834C181.475 79.3068 182.395 79.2684 182.855 79.2684C183.315 78.5018 183.89 77.4668 184.58 76.1634C185.27 74.7834 185.884 73.4034 186.42 72.0234C186.957 70.6434 187.225 69.5701 187.225 68.8034C187.225 68.1134 187.034 67.6534 186.65 67.4234C186.344 67.1168 186.19 66.9251 186.19 66.8484C186.19 66.6951 186.574 66.4268 187.34 66.0434C188.184 65.5834 189.18 65.1234 190.33 64.6634C191.48 64.2034 192.554 63.8201 193.55 63.5134C194.547 63.2068 195.199 63.0534 195.505 63.0534C195.812 63.0534 196.004 63.3218 196.08 63.8584C196.157 64.3184 196.195 64.6251 196.195 64.7784C196.195 66.1584 195.697 67.8068 194.7 69.7234C193.78 71.5634 192.707 73.4034 191.48 75.2434C190.33 77.0068 189.334 78.5018 188.49 79.7284H201.14C201.37 79.7284 201.485 79.8051 201.485 79.9584C201.485 80.3418 201.179 80.8401 200.565 81.4534C200.029 82.0668 199.569 82.3734 199.185 82.3734C197.959 82.3734 196.77 82.4501 195.62 82.6034C194.47 82.6801 193.282 82.7568 192.055 82.8334C190.599 82.9101 189.065 83.2551 187.455 83.8684C185.845 84.4818 184.619 85.4018 183.775 86.6284C183.162 87.4718 182.204 88.8901 180.9 90.8834C179.597 92.8768 178.255 95.0234 176.875 97.3234C175.495 99.6234 174.307 101.77 173.31 103.763C172.39 105.757 171.93 107.175 171.93 108.018C171.93 108.708 172.199 109.053 172.735 109.053C173.195 109.053 173.694 108.862 174.23 108.478C174.844 108.095 175.304 107.788 175.61 107.558C178.294 105.565 181.015 103.648 183.775 101.808C186.612 99.9684 189.564 98.4351 192.63 97.2084C192.784 97.1318 193.129 97.0168 193.665 96.8634C194.202 96.6334 194.509 96.5184 194.585 96.5184C195.045 96.5184 195.275 96.7868 195.275 97.3234C193.435 98.1668 191.212 99.3934 188.605 101.003C186.075 102.537 183.469 104.338 180.785 106.408C178.179 108.402 175.84 110.472 173.77 112.618C171.777 114.688 170.359 116.643 169.515 118.483C169.132 119.403 168.48 119.978 167.56 120.208C166.64 120.438 165.759 120.553 164.915 120.553Z" fill="#7C5DC5" fill-opacity="0.73"/>
            <path d="M426.565 121.818C425.568 121.818 424.878 121.588 424.495 121.128C424.112 120.668 423.92 119.94 423.92 118.943C423.92 116.107 424.533 113.04 425.76 109.743C426.987 106.37 428.405 103.112 430.015 99.9684C431.702 96.7484 433.158 93.9118 434.385 91.4584C435.612 88.9284 436.225 87.0884 436.225 85.9384C436.225 84.8651 435.957 84.1751 435.42 83.8684C434.96 83.4851 434.73 83.2551 434.73 83.1784C434.73 83.0251 435.113 82.7568 435.88 82.3734C436.723 81.9134 437.72 81.4534 438.87 80.9934C440.02 80.4568 441.055 80.0351 441.975 79.7284C442.972 79.3451 443.623 79.1534 443.93 79.1534C444.313 79.1534 444.505 79.4218 444.505 79.9584C444.505 80.7251 444.198 81.8751 443.585 83.4084C443.048 84.8651 442.435 86.3601 441.745 87.8934C441.055 89.3501 440.518 90.4618 440.135 91.2284C439.675 92.1484 439.062 93.6051 438.295 95.5984C437.605 97.5151 436.838 99.6234 435.995 101.923C435.228 104.147 434.577 106.255 434.04 108.248C433.503 110.165 433.235 111.583 433.235 112.503C433.235 112.963 433.312 113.423 433.465 113.883C433.695 114.343 434.117 114.573 434.73 114.573C435.803 114.573 437.222 113.922 438.985 112.618C440.825 111.315 442.78 109.667 444.85 107.673C446.997 105.68 449.067 103.572 451.06 101.348C453.13 99.1251 454.932 97.0934 456.465 95.2534C458.075 93.4134 459.225 92.0334 459.915 91.1134C460.758 89.9634 461.448 88.8134 461.985 87.6634C462.215 87.1268 462.445 86.3984 462.675 85.4784C462.905 84.4818 463.173 83.5618 463.48 82.7184C463.863 81.7984 464.323 81.2234 464.86 80.9934C465.167 80.8401 465.703 80.6101 466.47 80.3034C467.313 79.9968 468.118 79.7284 468.885 79.4984C469.728 79.2684 470.303 79.1534 470.61 79.1534C470.993 79.1534 471.185 79.4218 471.185 79.9584C471.185 80.7251 470.878 81.8751 470.265 83.4084C469.728 84.8651 469.115 86.3601 468.425 87.8934C467.735 89.3501 467.198 90.4618 466.815 91.2284C466.355 92.2251 465.703 93.7201 464.86 95.7134C464.093 97.7068 463.327 99.8534 462.56 102.153C461.793 104.377 461.142 106.485 460.605 108.478C460.068 110.472 459.8 112.005 459.8 113.078C459.8 113.845 459.953 114.573 460.26 115.263C460.567 115.953 461.18 116.298 462.1 116.298C463.25 116.298 464.515 115.838 465.895 114.918C467.352 113.998 468.732 112.963 470.035 111.813C471.415 110.663 472.488 109.743 473.255 109.053C475.018 107.29 476.973 105.182 479.12 102.728C481.267 100.275 483.298 97.6301 485.215 94.7934C487.208 91.8801 488.895 89.0051 490.275 86.1684C491.655 83.2551 492.498 80.5334 492.805 78.0034C492.882 77.6968 492.958 77.3518 493.035 76.9684C493.112 76.5084 493.38 76.2784 493.84 76.2784C494.53 76.2784 495.028 76.6234 495.335 77.3134C495.718 78.0034 495.987 78.7701 496.14 79.6134C496.293 80.3801 496.37 80.9934 496.37 81.4534C496.37 83.6768 495.603 86.2068 494.07 89.0434C492.613 91.8034 490.658 94.6401 488.205 97.5534C485.828 100.467 483.26 103.265 480.5 105.948C477.74 108.632 475.057 111.047 472.45 113.193C469.92 115.263 467.773 116.835 466.01 117.908C464.17 119.058 462.215 119.978 460.145 120.668C458.075 121.435 455.928 121.818 453.705 121.818C452.938 121.818 452.133 121.703 451.29 121.473C450.447 121.243 450.025 120.592 450.025 119.518C450.025 118.138 450.332 116.452 450.945 114.458C451.635 112.465 452.44 110.395 453.36 108.248C454.28 106.025 455.2 103.955 456.12 102.038C457.117 100.045 457.96 98.4351 458.65 97.2084C457.5 98.6651 455.967 100.428 454.05 102.498C452.133 104.568 449.987 106.753 447.61 109.053C445.233 111.277 442.78 113.347 440.25 115.263C437.797 117.18 435.382 118.752 433.005 119.978C430.628 121.205 428.482 121.818 426.565 121.818ZM492.528 120.668C491.685 120.668 490.573 120.553 489.193 120.323C487.89 120.017 487.238 119.25 487.238 118.023C487.238 117.333 487.43 116.682 487.813 116.068C489.883 111.468 492.49 106.83 495.633 102.153C498.777 97.4001 502.265 92.9918 506.098 88.9284C509.932 84.7884 513.918 81.3001 518.058 78.4634C519.362 77.6201 520.895 77.0451 522.658 76.7384C524.498 76.4318 526.147 76.2784 527.603 76.2784C528.14 76.2784 528.638 76.2784 529.098 76.2784C529.635 76.2784 530.133 76.3551 530.593 76.5084C530.977 75.2818 532.012 74.4001 533.698 73.8634C535.385 73.2501 536.765 72.9434 537.838 72.9434C538.988 72.9434 539.563 73.3651 539.563 74.2084C539.563 74.7451 539.41 75.3201 539.103 75.9334C538.797 76.5468 538.567 77.0834 538.413 77.5434C537.647 79.2301 536.343 81.1851 534.503 83.4084C532.74 85.5551 530.785 87.5868 528.638 89.5034C526.492 91.4201 524.575 92.7618 522.888 93.5284C523.425 93.5284 524.383 93.5668 525.763 93.6434C527.22 93.6434 528.638 93.7968 530.018 94.1034C531.398 94.3334 532.203 94.7551 532.433 95.3684C532.357 95.5218 532.203 95.5984 531.973 95.5984C529.52 95.9051 527.105 96.1734 524.728 96.4034C522.428 96.6334 520.052 97.0551 517.598 97.6684C516.525 97.9751 515.452 98.2818 514.378 98.5884C513.305 98.8951 512.232 99.2401 511.158 99.6234L508.283 100.658C507.67 100.658 507.095 100.39 506.558 99.8534C506.098 99.3168 505.677 98.8184 505.293 98.3584C504.527 99.5084 503.645 100.927 502.648 102.613C501.652 104.223 500.77 105.872 500.003 107.558C499.237 109.245 498.853 110.778 498.853 112.158C498.853 113.538 499.275 114.535 500.118 115.148C500.962 115.762 501.997 116.068 503.223 116.068C505.523 116.068 508.092 115.417 510.928 114.113C513.765 112.81 516.525 111.277 519.208 109.513C521.892 107.673 524.115 106.063 525.878 104.683C526.108 104.453 526.3 104.338 526.453 104.338C526.76 104.338 526.913 104.607 526.913 105.143C526.913 105.68 526.645 106.293 526.108 106.983C524.498 108.67 522.352 110.433 519.668 112.273C516.985 114.037 514.187 115.57 511.273 116.873C508.36 118.177 505.677 119.02 503.223 119.403C501.46 119.633 499.697 119.902 497.933 120.208C496.17 120.515 494.368 120.668 492.528 120.668ZM507.133 95.5984C511.35 94.4484 515.682 93.7584 520.128 93.5284C520.358 93.1451 520.665 92.7618 521.048 92.3784C521.508 91.9184 521.892 91.5351 522.198 91.2284C524.115 89.4651 525.84 87.5101 527.373 85.3634C528.907 83.2168 529.827 80.8784 530.133 78.3484L530.248 78.1184C530.248 77.9651 529.903 77.8501 529.213 77.7734C528.523 77.6968 528.102 77.6584 527.948 77.6584C526.108 77.6584 524.153 78.3101 522.083 79.6134C520.09 80.9168 518.135 82.5651 516.218 84.5584C514.302 86.4751 512.538 88.4301 510.928 90.4234C509.395 92.4168 508.13 94.1418 507.133 95.5984ZM545.975 121.243C544.288 121.243 542.601 121.09 540.915 120.783C539.228 120.553 537.541 120.208 535.855 119.748C534.781 119.442 533.708 119.212 532.635 119.058C531.561 118.905 530.488 118.828 529.415 118.828C528.955 118.828 528.495 118.828 528.035 118.828C527.651 118.828 527.23 118.867 526.77 118.943C527.92 117.64 529.108 116.375 530.335 115.148C531.638 113.922 532.826 112.657 533.9 111.353C535.28 109.82 536.66 107.98 538.04 105.833C539.496 103.687 540.838 101.463 542.065 99.1634C543.368 96.8634 544.441 94.7934 545.285 92.9534L558.28 65.3534C559.43 62.9001 561.116 60.5618 563.34 58.3384C565.64 56.0384 568.285 54.8884 571.275 54.8884C572.731 54.8884 574.035 55.1951 575.185 55.8084C576.411 56.3451 577.523 57.0351 578.52 57.8784C578.826 58.0318 578.98 58.2234 578.98 58.4534C578.98 58.6834 578.75 58.7984 578.29 58.7984C576.296 58.7984 574.15 59.6418 571.85 61.3284C569.626 63.0151 567.403 65.2001 565.18 67.8834C562.956 70.5668 560.848 73.4034 558.855 76.3934C556.861 79.3834 555.098 82.2201 553.565 84.9034C552.031 87.5101 550.843 89.6184 550 91.2284C549.54 92.0718 548.926 93.2218 548.16 94.6784C547.47 96.1351 546.818 97.5918 546.205 99.0484C545.591 100.428 545.17 101.617 544.94 102.613C545.706 101.463 547.163 99.9684 549.31 98.1284C551.456 96.2118 553.833 94.2184 556.44 92.1484C559.046 90.0784 561.5 88.1618 563.8 86.3984C566.176 84.6351 567.978 83.3318 569.205 82.4884C569.971 81.9518 570.93 81.3001 572.08 80.5334C573.306 79.7668 574.571 79.1151 575.875 78.5784C577.178 77.9651 578.29 77.6584 579.21 77.6584C580.053 77.6584 580.628 77.9268 580.935 78.4634C581.241 78.9234 581.395 79.5368 581.395 80.3034C581.395 81.3001 581.241 82.3734 580.935 83.5234C580.628 84.6734 580.283 85.7084 579.9 86.6284C578.52 90.3084 576.45 94.2568 573.69 98.4734C571.006 102.613 567.978 106.523 564.605 110.203C561.308 113.883 558.05 116.873 554.83 119.173C553.603 120.017 552.185 120.553 550.575 120.783C548.965 121.09 547.431 121.243 545.975 121.243ZM542.87 118.713C544.48 118.713 546.205 118.215 548.045 117.218C549.885 116.222 551.418 115.225 552.645 114.228C554.715 112.542 556.9 110.472 559.2 108.018C561.576 105.488 563.8 102.882 565.87 100.198C567.94 97.4384 569.511 94.8701 570.585 92.4934C570.891 91.8801 571.16 91.2284 571.39 90.5384C571.696 89.7718 571.85 89.0434 571.85 88.3534C571.85 87.3568 571.39 86.8584 570.47 86.8584C569.32 86.8584 567.71 87.4718 565.64 88.6984C563.57 89.9251 561.346 91.4968 558.97 93.4134C556.593 95.2534 554.255 97.2084 551.955 99.2784C549.655 101.348 547.661 103.303 545.975 105.143C544.288 106.983 543.138 108.402 542.525 109.398C541.988 110.318 541.413 111.392 540.8 112.618C540.186 113.845 539.88 114.995 539.88 116.068C539.88 116.988 540.148 117.678 540.685 118.138C541.298 118.522 542.026 118.713 542.87 118.713Z" fill="#7C5DC5" fill-opacity="0.73"/>
            <rect x="264.344" y="0.602902" width="139" height="145" rx="21.5" transform="rotate(13.4991 264.344 0.602902)" stroke="#210D7B" stroke-opacity="0.55"/>
            <path d="M257 60.7765L271.974 60.7302L296.694 104.572L296.614 130.28L257 60.7765Z" fill="url(#paint0_linear_2_55)" fill-opacity="0.75"/>
            <path d="M319.698 105.867L326.5 94.8265L333.614 104.477L333.614 130.283L319.698 105.867Z" fill="url(#paint1_linear_2_55)" fill-opacity="0.75"/>
            <path d="M340.936 60.7796L325.963 60.7333L301.242 104.575L301.322 130.283L340.936 60.7796Z" fill="url(#paint2_linear_2_55)" fill-opacity="0.75"/>
            <path d="M377.936 60.7796L362.963 60.7333L338.242 104.575L338.322 130.283L377.936 60.7796Z" fill="url(#paint3_linear_2_55)" fill-opacity="0.75"/>
            <defs>
            <linearGradient id="paint0_linear_2_55" x1="262.661" y1="57.55" x2="302.275" y2="127.053" gradientUnits="userSpaceOnUse">
            <stop stop-color="#A12A91" stop-opacity="0.8"/>
            <stop offset="1" stop-color="#210D7B" stop-opacity="0.55"/>
            </linearGradient>
            <linearGradient id="paint1_linear_2_55" x1="322.167" y1="97.296" x2="339.165" y2="127.119" gradientUnits="userSpaceOnUse">
            <stop stop-color="#A12A91" stop-opacity="0.8"/>
            <stop offset="1" stop-color="#210D7B" stop-opacity="0.55"/>
            </linearGradient>
            <linearGradient id="paint2_linear_2_55" x1="335.275" y1="57.553" x2="295.661" y2="127.056" gradientUnits="userSpaceOnUse">
            <stop stop-color="#A12A91" stop-opacity="0.8"/>
            <stop offset="1" stop-color="#210D7B" stop-opacity="0.55"/>
            </linearGradient>
            <linearGradient id="paint3_linear_2_55" x1="372.275" y1="57.553" x2="332.661" y2="127.056" gradientUnits="userSpaceOnUse">
            <stop stop-color="#A12A91" stop-opacity="0.8"/>
            <stop offset="1" stop-color="#210D7B" stop-opacity="0.55"/>
            </linearGradient>
            </defs>
            </svg>