<svg xmlns="http://www.w3.org/2000/svg" width="78.935" height="28.439" viewBox="0 0 78.935 28.439"><path d="M33.4,70.315C28.265,76.353,23.34,83.841,23.291,89.438a6.629,6.629,0,0,0,2.263,5.337,10.973,10.973,0,0,0,7.415,2.717c3.715.005,7.4-1.5,10.292-2.652,4.864-1.947,58.632-25.321,58.632-25.321.519-.26.422-.584-.228-.423-.262.066-58.535,15.874-58.535,15.874a12.864,12.864,0,0,1-3.391.486c-4.478.027-8.463-2.462-8.431-7.706A17.211,17.211,0,0,1,33.4,70.315Z" transform="translate(-23.29 -69.054)" fill="#1b2364" fill-rule="evenodd"/></svg>